<?xml version="1.0" standalone="no"?><!DOCTYPE svg PUBLIC "-//W3C//DTD SVG 1.1//EN" "http://www.w3.org/Graphics/SVG/1.1/DTD/svg11.dtd"><svg t="1664258613479" class="icon" viewBox="0 0 1024 1024" version="1.1" xmlns="http://www.w3.org/2000/svg" p-id="7536" xmlns:xlink="http://www.w3.org/1999/xlink" width="128" height="128"><path d="M547.84 15.552a52.864 52.864 0 0 0-74.88 0L313.6 174.912a52.48 52.48 0 0 0 0 75.136c20.48 20.736 54.4 20.736 74.88 0l68.48-68.672V478.08c0 29.376 24.32 53.12 53.12 53.12 29.44 0 53.12-23.744 53.12-53.12V181.376l69.12 68.672c20.48 20.736 54.4 20.736 74.88 0a52.48 52.48 0 0 0 0-75.136L547.84 15.552z m-409.6 887.552V637.44h144.64c8.32 28.416 23.04 60.032 48.64 88.384 43.52 47.104 105.6 71.04 178.56 71.04 73.6 0 135.68-24 179.2-71.04 26.24-28.352 40.96-59.968 49.28-88.384h144v265.664H138.24zM329.6 531.2H85.12c-28.8 0-53.12 23.808-53.12 53.12v371.904c0 29.312 24.32 53.12 53.12 53.12h850.56c28.8 0 53.12-23.808 53.12-53.12V584.32c0-29.312-24.32-53.12-53.12-53.12h-243.84c-26.24 0-46.72 24.448-49.92 50.688-5.76 46.656-32 108.672-131.84 108.672-99.2 0-124.8-61.76-130.56-108.416-3.2-26.368-23.68-50.944-49.92-50.944z" p-id="7537" fill="#ffffff"></path></svg>